<svg xmlns="http://www.w3.org/2000/svg" version="1.1" xmlns:xlink="http://www.w3.org/1999/xlink" xmlns:svgjs="http://svgjs.dev/svgjs" width="1500" height="1500" viewBox="0 0 1500 1500"><rect width="1500" height="1500" fill="#ffffff"></rect><g transform="matrix(0.6666666666666666,0,0,0.6666666666666666,249.39393939393938,529.2534065128528)"><svg viewBox="0 0 396 175" data-background-color="#ffffff" preserveAspectRatio="xMidYMid meet" height="662" width="1500" xmlns="http://www.w3.org/2000/svg" xmlns:xlink="http://www.w3.org/1999/xlink"><g id="tight-bounds" transform="matrix(1,0,0,1,0.2400000000000091,0.031693036821963005)"><svg viewBox="0 0 395.52 174.93661392635607" height="174.93661392635607" width="395.52"><g><svg viewBox="0 0 395.52 174.93661392635607" height="174.93661392635607" width="395.52"><g transform="matrix(1,0,0,1,0,130.10352301726516)"><svg viewBox="0 0 395.52 44.83309090909091" height="44.83309090909091" width="395.52"><g id="textblocktransform"><svg viewBox="0 0 395.52 44.83309090909091" height="44.83309090909091" width="395.52" id="textblock"><g><svg viewBox="0 0 395.52 44.83309090909091" height="44.83309090909091" width="395.52"><g transform="matrix(1,0,0,1,0,0)"><svg width="395.52" viewBox="2.1 -39.2 352.52 39.900000000000006" height="44.83309090909091" data-palette-color="#8f4242"><path d="M41.45-35.4L41.45-35.4 41.45-34.4Q39.75-34.35 38.88-34.02 38-33.7 37.7-32.83 37.4-31.95 37.4-30.1L37.4-30.1 37.4-5.3Q37.4-3.5 37.7-2.6 38-1.7 38.88-1.4 39.75-1.1 41.45-1L41.45-1 41.45 0Q40.3-0.1 38.58-0.13 36.85-0.15 35.1-0.15L35.1-0.15Q33.15-0.15 31.45-0.13 29.75-0.1 28.7 0L28.7 0 28.7-1Q30.4-1.1 31.28-1.4 32.15-1.7 32.45-2.6 32.75-3.5 32.75-5.3L32.75-5.3 32.75-32.8 32.95-32.65 20.7 0.25 19.9 0.25 7.3-32.2 7.3-5.8Q7.3-4 7.63-2.98 7.95-1.95 8.93-1.53 9.9-1.1 11.85-1L11.85-1 11.85 0Q10.95-0.1 9.5-0.13 8.05-0.15 6.75-0.15L6.75-0.15Q5.5-0.15 4.23-0.13 2.95-0.1 2.1 0L2.1 0 2.1-1Q3.8-1.1 4.67-1.53 5.55-1.95 5.85-2.98 6.15-4 6.15-5.8L6.15-5.8 6.15-30.1Q6.15-31.95 5.85-32.83 5.55-33.7 4.67-34.02 3.8-34.35 2.1-34.4L2.1-34.4 2.1-35.4Q2.95-35.35 4.23-35.3 5.5-35.25 6.75-35.25L6.75-35.25Q7.85-35.25 9.03-35.3 10.2-35.35 11-35.4L11-35.4 22.35-5.5 21.5-5.1 32.75-35.25Q33.35-35.25 33.93-35.25 34.5-35.25 35.1-35.25L35.1-35.25Q36.85-35.25 38.58-35.3 40.3-35.35 41.45-35.4ZM51.45 0.35L51.45 0.35Q48.2 0.35 46.72-1.28 45.25-2.9 45.25-5.6L45.25-5.6Q45.25-7.7 46.27-9.08 47.3-10.45 48.9-11.33 50.5-12.2 52.27-12.83 54.05-13.45 55.65-14.05 57.25-14.65 58.27-15.4 59.3-16.15 59.3-17.3L59.3-17.3 59.3-20.4Q59.3-22.5 58.67-23.6 58.05-24.7 57-25.08 55.95-25.45 54.65-25.45L54.65-25.45Q53.4-25.45 51.97-25.1 50.55-24.75 49.7-23.65L49.7-23.65Q50.65-23.45 51.35-22.65 52.05-21.85 52.05-20.6L52.05-20.6Q52.05-19.35 51.25-18.63 50.45-17.9 49.2-17.9L49.2-17.9Q47.75-17.9 47.07-18.82 46.4-19.75 46.4-20.9L46.4-20.9Q46.4-22.2 47.05-23 47.7-23.8 48.7-24.5L48.7-24.5Q49.85-25.3 51.67-25.88 53.5-26.45 55.8-26.45L55.8-26.45Q57.85-26.45 59.3-25.98 60.75-25.5 61.7-24.6L61.7-24.6Q63-23.4 63.4-21.68 63.8-19.95 63.8-17.55L63.8-17.55 63.8-3.65Q63.8-2.45 64.15-1.88 64.5-1.3 65.35-1.3L65.35-1.3Q66.05-1.3 66.57-1.6 67.1-1.9 67.6-2.35L67.6-2.35 68.15-1.5Q67.1-0.7 66.15-0.18 65.2 0.35 63.6 0.35L63.6 0.35Q61 0.35 60.15-1 59.3-2.35 59.3-4.1L59.3-4.1Q57.7-1.45 55.67-0.55 53.65 0.35 51.45 0.35ZM53.65-1.65L53.65-1.65Q55.15-1.65 56.6-2.53 58.05-3.4 59.3-5.45L59.3-5.45 59.3-15.25Q58.55-14.15 56.97-13.5 55.4-12.85 53.72-12.08 52.05-11.3 50.85-9.98 49.65-8.65 49.65-6.2L49.65-6.2Q49.65-3.9 50.8-2.78 51.95-1.65 53.65-1.65ZM82.15-26.45L82.15-26.45Q83.75-26.45 85.25-26.05 86.75-25.65 87.95-24.85L87.95-24.85Q89.1-24.1 89.7-23.13 90.3-22.15 90.3-21L90.3-21Q90.3-19.65 89.55-18.93 88.8-18.2 87.65-18.2L87.65-18.2Q86.55-18.2 85.72-18.85 84.9-19.5 84.9-20.7L84.9-20.7Q84.9-21.85 85.52-22.55 86.15-23.25 87-23.45L87-23.45Q86.5-24.35 85.22-24.95 83.95-25.55 82.5-25.55L82.5-25.55Q81.25-25.55 80-24.95 78.75-24.35 77.7-22.98 76.65-21.6 76-19.23 75.35-16.85 75.35-13.3L75.35-13.3Q75.35-8.9 76.35-6.3 77.35-3.7 78.97-2.58 80.6-1.45 82.55-1.45L82.55-1.45Q84.5-1.45 86.5-2.6 88.5-3.75 89.8-6.6L89.8-6.6 90.75-6.25Q90.25-4.65 89.1-3.03 87.95-1.4 86.1-0.35 84.25 0.7 81.55 0.7L81.55 0.7Q78.45 0.7 75.95-0.9 73.45-2.5 71.97-5.48 70.5-8.45 70.5-12.55L70.5-12.55Q70.5-16.65 71.97-19.78 73.45-22.9 76.1-24.68 78.75-26.45 82.15-26.45ZM116.69-39.2L116.69-39.2 116.69-5.45Q116.69-3.2 117.52-2.13 118.34-1.05 120.49-1.05L120.49-1.05 120.49 0Q118.94-0.15 117.39-0.15L117.39-0.15Q115.94-0.15 114.62 0 113.29 0.15 112.19 0.55L112.19 0.55 112.19-33.2Q112.19-35.45 111.39-36.52 110.59-37.6 108.39-37.6L108.39-37.6 108.39-38.65Q109.99-38.5 111.49-38.5L111.49-38.5Q112.94-38.5 114.27-38.68 115.59-38.85 116.69-39.2ZM106.19-26.45L106.19-26.45Q108.39-26.45 110.32-25.4 112.24-24.35 112.89-21.8L112.89-21.8 112.24-21.3Q111.54-23.4 110.07-24.35 108.59-25.3 106.59-25.3L106.59-25.3Q103.64-25.3 101.67-22.25 99.69-19.2 99.74-12.85L99.74-12.85Q99.74-8.8 100.52-6.13 101.29-3.45 102.82-2.13 104.34-0.8 106.54-0.8L106.54-0.8Q108.64-0.8 110.34-2.6 112.04-4.4 112.39-7.9L112.39-7.9 112.99-7.2Q112.59-3.4 110.57-1.35 108.54 0.7 105.09 0.7L105.09 0.7Q101.99 0.7 99.67-0.8 97.34-2.3 96.12-5.3 94.89-8.3 94.89-12.85L94.89-12.85Q94.89-17.4 96.47-20.43 98.04-23.45 100.62-24.95 103.19-26.45 106.19-26.45ZM145.69-26.3L145.69-26.3 145.69-5.4Q145.69-3.15 146.52-2.08 147.34-1 149.49-1L149.49-1 149.49 0.05Q147.94-0.1 146.39-0.1L146.39-0.1Q144.94-0.1 143.62 0.05 142.29 0.2 141.19 0.6L141.19 0.6 141.19-5.3Q139.94-2.05 137.67-0.68 135.39 0.7 132.99 0.7L132.99 0.7Q131.24 0.7 129.94 0.2 128.64-0.3 127.79-1.2L127.79-1.2Q126.84-2.2 126.49-3.8 126.14-5.4 126.14-7.75L126.14-7.75 126.14-20.3Q126.14-22.55 125.34-23.63 124.54-24.7 122.34-24.7L122.34-24.7 122.34-25.75Q123.94-25.6 125.44-25.6L125.44-25.6Q126.89-25.6 128.22-25.78 129.54-25.95 130.64-26.3L130.64-26.3 130.64-6.65Q130.64-5.1 130.84-3.8 131.04-2.5 131.84-1.7 132.64-0.9 134.44-0.9L134.44-0.9Q137.39-0.9 139.29-3.53 141.19-6.15 141.19-9.95L141.19-9.95 141.19-20.3Q141.19-22.55 140.39-23.63 139.59-24.7 137.39-24.7L137.39-24.7 137.39-25.75Q138.99-25.6 140.49-25.6L140.49-25.6Q141.94-25.6 143.27-25.78 144.59-25.95 145.69-26.3ZM164.39-39.1L164.39-39.1Q165.79-39.1 166.86-38.73 167.94-38.35 168.74-37.75L168.74-37.75Q169.49-37.15 169.89-36.35 170.29-35.55 170.29-34.65L170.29-34.65Q170.29-33.5 169.54-32.75 168.79-32 167.64-32L167.64-32Q166.54-32 165.71-32.73 164.89-33.45 164.89-34.7L164.89-34.7Q164.89-35.75 165.46-36.4 166.04-37.05 166.99-37.25L166.99-37.25Q166.84-37.7 166.21-38.02 165.59-38.35 164.54-38.35L164.54-38.35Q163.39-38.35 162.56-37.85 161.74-37.35 161.29-36.5L161.29-36.5Q160.69-35.45 160.54-33.38 160.39-31.3 160.39-27L160.39-27 160.39-25.7 165.74-25.7 165.74-24.7 160.39-24.7 160.39-5.15Q160.39-2.7 161.81-1.88 163.24-1.05 165.69-1.05L165.69-1.05 165.69 0Q164.54-0.05 162.44-0.13 160.34-0.2 157.99-0.2L157.99-0.2Q156.29-0.2 154.61-0.13 152.94-0.05 152.09 0L152.09 0 152.09-1.05Q154.14-1.05 155.01-1.8 155.89-2.55 155.89-4.65L155.89-4.65 155.89-24.7 151.89-24.7 151.89-25.7 155.89-25.7Q155.89-30.15 156.46-32.52 157.04-34.9 158.44-36.6L158.44-36.6Q159.44-37.75 160.99-38.43 162.54-39.1 164.39-39.1ZM180.99-39.1L180.99-39.1Q182.38-39.1 183.46-38.73 184.53-38.35 185.34-37.75L185.34-37.75Q186.09-37.15 186.49-36.35 186.88-35.55 186.88-34.65L186.88-34.65Q186.88-33.5 186.13-32.75 185.38-32 184.24-32L184.24-32Q183.13-32 182.31-32.73 181.49-33.45 181.49-34.7L181.49-34.7Q181.49-35.75 182.06-36.4 182.63-37.05 183.59-37.25L183.59-37.25Q183.44-37.7 182.81-38.02 182.19-38.35 181.13-38.35L181.13-38.35Q179.99-38.35 179.16-37.85 178.34-37.35 177.88-36.5L177.88-36.5Q177.28-35.45 177.13-33.38 176.99-31.3 176.99-27L176.99-27 176.99-25.7 182.34-25.7 182.34-24.7 176.99-24.7 176.99-5.15Q176.99-2.7 178.41-1.88 179.84-1.05 182.28-1.05L182.28-1.05 182.28 0Q181.13-0.05 179.03-0.13 176.94-0.2 174.59-0.2L174.59-0.2Q172.88-0.2 171.21-0.13 169.53-0.05 168.69 0L168.69 0 168.69-1.05Q170.74-1.05 171.61-1.8 172.49-2.55 172.49-4.65L172.49-4.65 172.49-24.7 168.49-24.7 168.49-25.7 172.49-25.7Q172.49-30.15 173.06-32.52 173.63-34.9 175.03-36.6L175.03-36.6Q176.03-37.75 177.59-38.43 179.13-39.1 180.99-39.1ZM223.28-35.4L223.28-35.4Q223.08-33.65 223-32 222.93-30.35 222.93-29.5L222.93-29.5Q222.93-28.6 222.98-27.78 223.03-26.95 223.08-26.4L223.08-26.4 221.93-26.4Q221.63-29.35 221.08-31.08 220.53-32.8 219.2-33.52 217.88-34.25 215.23-34.25L215.23-34.25 211.08-34.25Q209.38-34.25 208.5-33.98 207.63-33.7 207.33-32.83 207.03-31.95 207.03-30.1L207.03-30.1 207.03-5.3Q207.03-3.5 207.33-2.6 207.63-1.7 208.5-1.43 209.38-1.15 211.08-1.15L211.08-1.15 214.73-1.15Q217.88-1.15 219.5-2 221.13-2.85 221.85-4.78 222.58-6.7 222.93-10L222.93-10 224.08-10Q223.93-8.65 223.93-6.4L223.93-6.4Q223.93-5.45 224-3.68 224.08-1.9 224.28 0L224.28 0Q221.73-0.1 218.53-0.13 215.33-0.15 212.83-0.15L212.83-0.15Q211.33-0.15 208.85-0.15 206.38-0.15 203.58-0.13 200.78-0.1 198.33 0L198.33 0 198.33-1Q200.03-1.1 200.91-1.4 201.78-1.7 202.08-2.6 202.38-3.5 202.38-5.3L202.38-5.3 202.38-30.1Q202.38-31.95 202.08-32.83 201.78-33.7 200.91-34.02 200.03-34.35 198.33-34.4L198.33-34.4 198.33-35.4Q200.78-35.35 203.58-35.3 206.38-35.25 208.85-35.25 211.33-35.25 212.83-35.25L212.83-35.25Q215.13-35.25 218.06-35.27 220.98-35.3 223.28-35.4ZM205.53-18.3L214.68-18.3Q214.68-18.3 214.68-17.8 214.68-17.3 214.68-17.3L214.68-17.3 205.53-17.3Q205.53-17.3 205.53-17.8 205.53-18.3 205.53-18.3L205.53-18.3ZM214.98-24.9L216.13-24.9Q215.93-22.05 215.95-20.55 215.98-19.05 215.98-17.8L215.98-17.8Q215.98-16.55 216.03-15.05 216.08-13.55 216.28-10.7L216.28-10.7 215.13-10.7Q214.93-12.3 214.66-13.83 214.38-15.35 213.45-16.32 212.53-17.3 210.33-17.3L210.33-17.3 210.33-18.3Q212.53-18.3 213.41-19.45 214.28-20.6 214.53-22.15 214.78-23.7 214.98-24.9L214.98-24.9ZM237.08-26.45L237.08-26.45Q239.08-26.45 240.48-25.8 241.88-25.15 242.53-24.6L242.53-24.6Q244.18-23.25 244.53-26.4L244.53-26.4 245.68-26.4Q245.58-25 245.53-23.08 245.48-21.15 245.48-17.9L245.48-17.9 244.33-17.9Q244.03-19.75 243.3-21.5 242.58-23.25 241.18-24.38 239.78-25.5 237.53-25.5L237.53-25.5Q235.78-25.5 234.6-24.53 233.43-23.55 233.43-21.65L233.43-21.65Q233.43-20.15 234.33-19.07 235.23-18 236.68-17.07 238.13-16.15 239.83-15.05L239.83-15.05Q242.68-13.2 244.68-11.3 246.68-9.4 246.68-6.3L246.68-6.3Q246.68-4 245.48-2.45 244.28-0.9 242.35-0.1 240.43 0.7 238.13 0.7L238.13 0.7Q237.03 0.7 236.05 0.53 235.08 0.35 234.18 0L234.18 0Q233.68-0.25 233.15-0.6 232.63-0.95 232.13-1.35L232.13-1.35Q231.63-1.75 231.23-1.33 230.83-0.9 230.63 0.35L230.63 0.35 229.48 0.35Q229.58-1.25 229.63-3.55 229.68-5.85 229.68-9.65L229.68-9.65 230.83-9.65Q231.18-6.85 231.83-4.75 232.48-2.65 233.88-1.48 235.28-0.3 237.78-0.3L237.78-0.3Q239.28-0.3 240.75-1.35 242.23-2.4 242.23-5.05L242.23-5.05Q242.23-7.25 240.63-8.65 239.03-10.05 236.58-11.6L236.58-11.6Q234.78-12.75 233.2-13.9 231.63-15.05 230.65-16.5 229.68-17.95 229.68-20L229.68-20Q229.68-22.25 230.7-23.68 231.73-25.1 233.43-25.78 235.13-26.45 237.08-26.45ZM258.52-34.05L258.52-34.05 258.52-25.7 265.93-25.7 265.93-24.7 258.52-24.7 258.52-5.35Q258.52-3 259.38-2.05 260.23-1.1 261.73-1.1L261.73-1.1Q263.23-1.1 264.32-2.33 265.43-3.55 266.23-6.45L266.23-6.45 267.23-6.2Q266.73-3.3 265.25-1.3 263.77 0.7 260.73 0.7L260.73 0.7Q259.02 0.7 257.93 0.28 256.82-0.15 255.97-0.95L255.97-0.95Q254.88-2.1 254.45-3.7 254.03-5.3 254.03-7.95L254.03-7.95 254.03-24.7 249.22-24.7 249.22-25.7 254.03-25.7 254.03-33.35Q255.28-33.4 256.43-33.55 257.57-33.7 258.52-34.05ZM274.87 0.35L274.87 0.35Q271.62 0.35 270.15-1.28 268.67-2.9 268.67-5.6L268.67-5.6Q268.67-7.7 269.7-9.08 270.72-10.45 272.32-11.33 273.92-12.2 275.7-12.83 277.47-13.45 279.07-14.05 280.67-14.65 281.7-15.4 282.72-16.15 282.72-17.3L282.72-17.3 282.72-20.4Q282.72-22.5 282.1-23.6 281.47-24.7 280.42-25.08 279.37-25.45 278.07-25.45L278.07-25.45Q276.82-25.45 275.4-25.1 273.97-24.75 273.12-23.65L273.12-23.65Q274.07-23.45 274.77-22.65 275.47-21.85 275.47-20.6L275.47-20.6Q275.47-19.35 274.67-18.63 273.87-17.9 272.62-17.9L272.62-17.9Q271.17-17.9 270.5-18.82 269.82-19.75 269.82-20.9L269.82-20.9Q269.82-22.2 270.47-23 271.12-23.8 272.12-24.5L272.12-24.5Q273.27-25.3 275.1-25.88 276.92-26.45 279.22-26.45L279.22-26.45Q281.27-26.45 282.72-25.98 284.17-25.5 285.12-24.6L285.12-24.6Q286.42-23.4 286.82-21.68 287.22-19.95 287.22-17.55L287.22-17.55 287.22-3.65Q287.22-2.45 287.57-1.88 287.92-1.3 288.77-1.3L288.77-1.3Q289.47-1.3 290-1.6 290.52-1.9 291.02-2.35L291.02-2.35 291.57-1.5Q290.52-0.7 289.57-0.18 288.62 0.35 287.02 0.35L287.02 0.35Q284.42 0.35 283.57-1 282.72-2.35 282.72-4.1L282.72-4.1Q281.12-1.45 279.1-0.55 277.07 0.35 274.87 0.35ZM277.07-1.65L277.07-1.65Q278.57-1.65 280.02-2.53 281.47-3.4 282.72-5.45L282.72-5.45 282.72-15.25Q281.97-14.15 280.4-13.5 278.82-12.85 277.15-12.08 275.47-11.3 274.27-9.98 273.07-8.65 273.07-6.2L273.07-6.2Q273.07-3.9 274.22-2.78 275.37-1.65 277.07-1.65ZM301.12-34.05L301.12-34.05 301.12-25.7 308.52-25.7 308.52-24.7 301.12-24.7 301.12-5.35Q301.12-3 301.97-2.05 302.82-1.1 304.32-1.1L304.32-1.1Q305.82-1.1 306.92-2.33 308.02-3.55 308.82-6.45L308.82-6.45 309.82-6.2Q309.32-3.3 307.85-1.3 306.37 0.7 303.32 0.7L303.32 0.7Q301.62 0.7 300.52 0.28 299.42-0.15 298.57-0.95L298.57-0.95Q297.47-2.1 297.05-3.7 296.62-5.3 296.62-7.95L296.62-7.95 296.62-24.7 291.82-24.7 291.82-25.7 296.62-25.7 296.62-33.35Q297.87-33.4 299.02-33.55 300.17-33.7 301.12-34.05ZM322.92-26.45L322.92-26.45Q327.32-26.45 329.79-23.78 332.27-21.1 332.27-15.45L332.27-15.45 314.62-15.45 314.57-16.4 327.47-16.4Q327.57-18.85 327.07-20.93 326.57-23 325.49-24.25 324.42-25.5 322.72-25.5L322.72-25.5Q320.42-25.5 318.64-23.2 316.87-20.9 316.52-15.9L316.52-15.9 316.67-15.7Q316.57-14.95 316.52-14.05 316.47-13.15 316.47-12.25L316.47-12.25Q316.47-8.85 317.57-6.4 318.67-3.95 320.44-2.68 322.22-1.4 324.12-1.4L324.12-1.4Q326.37-1.4 328.27-2.5 330.17-3.6 331.47-6.4L331.47-6.4 332.47-6Q331.92-4.35 330.67-2.8 329.42-1.25 327.52-0.28 325.62 0.7 323.12 0.7L323.12 0.7Q319.52 0.7 316.94-0.95 314.37-2.6 312.99-5.53 311.62-8.45 311.62-12.25L311.62-12.25Q311.62-16.65 313.02-19.83 314.42-23 316.97-24.73 319.52-26.45 322.92-26.45ZM345.01-26.45L345.01-26.45Q347.01-26.45 348.42-25.8 349.81-25.15 350.47-24.6L350.47-24.6Q352.12-23.25 352.47-26.4L352.47-26.4 353.62-26.4Q353.51-25 353.47-23.08 353.42-21.15 353.42-17.9L353.42-17.9 352.26-17.9Q351.97-19.75 351.24-21.5 350.51-23.25 349.12-24.38 347.72-25.5 345.47-25.5L345.47-25.5Q343.72-25.5 342.54-24.53 341.37-23.55 341.37-21.65L341.37-21.65Q341.37-20.15 342.26-19.07 343.17-18 344.62-17.07 346.06-16.15 347.76-15.05L347.76-15.05Q350.62-13.2 352.62-11.3 354.62-9.4 354.62-6.3L354.62-6.3Q354.62-4 353.42-2.45 352.22-0.9 350.29-0.1 348.37 0.7 346.06 0.7L346.06 0.7Q344.97 0.7 343.99 0.53 343.01 0.35 342.12 0L342.12 0Q341.62-0.25 341.09-0.6 340.56-0.95 340.06-1.35L340.06-1.35Q339.56-1.75 339.17-1.33 338.76-0.9 338.56 0.35L338.56 0.35 337.42 0.35Q337.51-1.25 337.56-3.55 337.62-5.85 337.62-9.65L337.62-9.65 338.76-9.65Q339.12-6.85 339.76-4.75 340.42-2.65 341.81-1.48 343.22-0.3 345.72-0.3L345.72-0.3Q347.22-0.3 348.69-1.35 350.17-2.4 350.17-5.05L350.17-5.05Q350.17-7.25 348.56-8.65 346.97-10.05 344.51-11.6L344.51-11.6Q342.72-12.75 341.14-13.9 339.56-15.05 338.59-16.5 337.62-17.95 337.62-20L337.62-20Q337.62-22.25 338.64-23.68 339.67-25.1 341.37-25.78 343.06-26.45 345.01-26.45Z" opacity="1" transform="matrix(1,0,0,1,0,0)" fill="#8f4242" class="wordmark-text-0" data-fill-palette-color="primary" id="text-0"></path></svg></g></svg></g></svg></g></svg></g><g transform="matrix(1,0,0,1,143.29225526082195,0)"><svg viewBox="0 0 108.93548947835608 108.93548947835608" height="108.93548947835608" width="108.93548947835608"><g><svg></svg></g><g id="icon-0"><svg viewBox="0 0 108.93548947835608 108.93548947835608" height="108.93548947835608" width="108.93548947835608"><g><path d="M0 54.468c0-30.082 24.386-54.468 54.468-54.468 30.082 0 54.468 24.386 54.467 54.468 0 30.082-24.386 54.468-54.467 54.467-30.082 0-54.468-24.386-54.468-54.467zM54.468 104.892c27.849 0 50.425-22.576 50.424-50.424 0-27.849-22.576-50.425-50.424-50.425-27.849 0-50.425 22.576-50.425 50.425 0 27.849 22.576 50.425 50.425 50.424z" data-fill-palette-color="tertiary" fill="#8f4242" stroke="transparent"></path></g><g transform="matrix(1,0,0,1,22.96189589236029,29.234773717296846)"><svg viewBox="0 0 63.0116976936355 50.46594204376238" height="50.46594204376238" width="63.0116976936355"><g><svg xmlns="http://www.w3.org/2000/svg" xmlns:xlink="http://www.w3.org/1999/xlink" version="1.1" x="0" y="0" viewBox="11.873928871476872 23.812 120.33367691735613 96.37500000000001" enable-background="new 0 0 144.083 144" xml:space="preserve" height="50.46594204376238" width="63.0116976936355" class="icon-cg-0" data-fill-palette-color="accent" id="cg-0"><rect x="38.758" y="93.806" width="6" height="11.723" fill="#8f4242" data-fill-palette-color="accent"></rect><rect x="27.758" y="93.806" width="6" height="11.723" fill="#8f4242" data-fill-palette-color="accent"></rect><rect x="109.446" y="93.806" width="6" height="11.723" fill="#8f4242" data-fill-palette-color="accent"></rect><rect x="98.446" y="93.806" width="6" height="11.723" fill="#8f4242" data-fill-palette-color="accent"></rect><path d="M132.122 82.455l-10-40.911c-0.328-1.343-1.531-2.288-2.914-2.288H50.292V26.812c0-1.657-1.343-3-3-3h-14c-1.657 0-3 1.343-3 3v12.445h-5.416c-1.382 0-2.586 0.945-2.914 2.288L11.96 82.455c-0.219 0.895-0.015 1.84 0.554 2.564s1.439 1.147 2.36 1.147h1.733v31.021c0 1.657 1.343 3 3 3h33.275 9.746 18.824H91.2h33.275c1.658 0 3-1.343 3-3V86.167h1.732c0.922 0 1.791-0.423 2.359-1.147C132.137 84.295 132.34 83.35 132.122 82.455zM55.883 68.889l16.335-19.002L88.2 68.871v45.317H55.883V68.889zM117.843 49.311H79.577l-3.412-4.054h40.688L117.843 49.311zM36.292 29.812h8v9.445h-8V29.812zM68.287 45.257l-3.485 4.054H26.24l0.991-4.054H68.287zM22.608 86.167h27.275v28.021H22.608V86.167zM121.475 114.188H94.2V86.167h27.275V114.188z" fill="#8f4242" data-fill-palette-color="accent"></path><path d="M72.042 78.396c-4.319 0-7.818 3.5-7.818 7.816v13.454h15.635V86.213C79.859 81.896 76.36 78.396 72.042 78.396z" fill="#8f4242" data-fill-palette-color="accent"></path></svg></g></svg></g></svg></g></svg></g><g></g></svg></g><defs></defs></svg><rect width="395.52" height="174.93661392635607" fill="none" stroke="none" visibility="hidden"></rect></g></svg></g></svg>